#!OML:ASF E:\Style4\Style4.ASF
:FULLY-SPECIFIED
:DEGREES
1285
root 0.137486 17.3163 -0.552581 3.47536 -4.74948 0.0569653
lowerback 5.70177 2.63068 -0.848603
upperback -1.41193 3.34243 -2.34179
thorax -4.56664 1.64728 -2.26779
lowerneck 2.75697 -1.24921 -5.60018
upperneck 6.6554 -2.02482 5.892
head 1.77145 -1.04893 2.86909
rclavicle 8.05078e-015 -7.15625e-015
rhumerus -87.7728 52.4503 -124.85
rradius 82.9974
rwrist 0.415127
rhand -9.21697 32.4919
rfingers 7.12502
rthumb 16.7376 3.1934
lclavicle 8.05078e-015 -7.15625e-015
lhumerus -29.3193 24.4894 18.4716
lradius 110.707
lwrist -13.7441
lhand -10.7086 35.2723
lfingers 7.12502
lthumb 15.3012 64.6863
rfemur -19.8679 4.01367 17.7761
rtibia 42.1925
rfoot -24.4548 -10.6633
rtoes -12.3569
lfemur -18.7875 0.366007 -19.6116
ltibia 43.1893
lfoot -27.2185 10.1261
ltoes -16.071
1286
root 0.122877 17.3077 -0.554492 3.41614 -4.76446 -0.0581409
lowerback 5.74201 2.66469 -0.970123
upperback -1.37733 3.3756 -2.40227
thorax -4.55591 1.66622 -2.2667
lowerneck 2.72384 -1.26143 -5.60895
upperneck 6.61359 -2.03834 5.89333
head 1.76473 -1.0554 2.87073
rclavicle 4.37823e-014 -1.82882e-014
rhumerus -87.7744 52.4536 -124.916
rradius 82.9861
rwrist 0.383014
rhand -9.08224 32.4372
rfingers 7.12502
rthumb 16.8673 3.1497
lclavicle 4.37823e-014 -1.82882e-014
lhumerus -29.3681 24.4189 18.4129
lradius 110.778
lwrist -13.6865
lhand -10.4568 35.1727
lfingers 7.12502
lthumb 15.5437 64.568
rfemur -19.8519 3.98191 17.951
rtibia 42.2993
rfoot -24.5428 -10.5182
rtoes -11.9663
lfemur -18.8284 0.375544 -19.4331
ltibia 43.4184
lfoot -27.4193 10.0339
ltoes -15.5794
1287
root 0.109968 17.3012 -0.554281 3.48568 -4.67593 -0.363218
lowerback 5.64355 2.67892 -0.843768
upperback -1.38165 3.40628 -2.40547
thorax -4.49616 1.67855 -2.33785
lowerneck 2.81403 -1.26475 -5.6908
upperneck 6.48363 -2.04868 6.00206
head 1.71033 -1.06224 2.92281
rclavicle -8.54774e-015 -7.15625e-015
rhumerus -87.7364 52.4203 -124.945
rradius 82.9148
rwrist 0.407476
rhand -9.03202 32.2848
rfingers 7.12502
rthumb 16.9156 3.00148
lclavicle -8.54774e-015 -7.15625e-015
lhumerus -29.1951 24.411 18.4969
lradius 110.574
lwrist -13.5966
lhand -10.3734 35.1038
lfingers 7.12502
lthumb 15.6241 64.4928
rfemur -19.9132 3.91449 18.3362
rtibia 42.3807
rfoot -24.5844 -10.5378
rtoes -11.8764
lfemur -19.0119 0.316259 -19.0398
ltibia 43.6605
lfoot -27.4747 10.0065
ltoes -15.5622
1288
root 0.0986605 17.2946 -0.550957 3.5994 -4.56028 -0.742186
lowerback 5.45958 2.65605 -0.620865
upperback -1.39498 3.39695 -2.38386
thorax -4.39444 1.66932 -2.42892
lowerneck 2.90276 -1.264 -5.74737
upperneck 6.356 -2.05003 6.04297
head 1.65477 -1.06502 2.94709
rclavicle 1.92821e-014 -5.56597e-015
rhumerus -87.7445 52.4445 -125.035
rradius 82.8281
rwrist 0.459983
rhand -9.01029 32.208
rfingers 7.12502
rthumb 16.9365 2.92645
lclavicle 1.92821e-014 -5.56597e-015
lhumerus -29.0224 24.5138 18.4862
lradius 110.245
lwrist -13.5751
lhand -10.3438 35.0991
lfingers 7.12502
lthumb 15.6526 64.4859
rfemur -19.9957 3.80523 18.8053
rtibia 42.4337
rfoot -24.61 -10.6311
rtoes -11.7861
lfemur -19.2312 0.289351 -18.5636
ltibia 43.8939
lfoot -27.4582 10.0001
ltoes -16.0015
1289
root 0.0882691 17.2885 -0.550998 3.55888 -4.55296 -0.793852
lowerback 5.4739 2.66097 -0.760878
upperback -1.37832 3.39181 -2.41842
thorax -4.39154 1.66996 -2.38631
lowerneck 2.88358 -1.28678 -5.79623
upperneck 6.3117 -2.07731 6.01254
head 1.64586 -1.07992 2.94539
rclavicle 4.2192e-014 -2.22639e-014
rhumerus -87.7578 52.4856 -125.115
rradius 82.7674
rwrist 0.465163
rhand -8.78363 32.2592
rfingers 7.12502
rthumb 17.1547 2.9965
lclavicle 4.2192e-014 -2.22639e-014
lhumerus -28.9717 24.5399 18.4455
lradius 110.111
lwrist -13.5774
lhand -10.2678 35.0272
lfingers 7.12502
lthumb 15.7258 64.4083
rfemur -19.9714 3.76885 18.9085
rtibia 42.4734
rfoot -24.6214 -10.6665
rtoes -11.8551
lfemur -19.2626 0.289869 -18.4644
ltibia 44.0644
lfoot -27.594 9.93524
ltoes -16
1290
root 0.0784214 17.2834 -0.551488 3.4719 -4.54578 -0.691525
lowerback 5.55823 2.69883 -1.04231
upperback -1.36681 3.41669 -2.49136
thorax -4.43877 1.68822 -2.31158
lowerneck 2.84201 -1.32926 -5.8642
upperneck 6.30662 -2.13629 6.08378
head 1.65799 -1.10932 2.98212
rclavicle 3.66758e-014 -1.11319e-014
rhumerus -87.658 52.4424 -125.063
rradius 82.7099
rwrist 0.516192
rhand -8.50407 32.354
rfingers 7.12502
rthumb 17.4238 3.11486
lclavicle 3.66758e-014 -1.11319e-014
lhumerus -28.9956 24.406 18.4258
lradius 110.12
lwrist -13.5266
lhand -10.201 34.973
lfingers 7.12502
lthumb 15.7901 64.349
rfemur -19.9085 3.75162 18.8357
rtibia 42.512
rfoot -24.6494 -10.6887
rtoes -12.0189
lfemur -19.2234 0.25168 -18.5441
ltibia 44.1815
lfoot -27.7825 9.86394
ltoes -15.5185
1291
root 0.0709191 17.2806 -0.546695 3.46298 -4.45404 -0.752819
lowerback 5.49208 2.70971 -1.13541
upperback -1.35268 3.42624 -2.49673
thorax -4.39159 1.69566 -2.26176
lowerneck 2.76788 -1.35469 -5.86663
upperneck 6.33345 -2.16722 6.07425
head 1.68185 -1.12382 2.97894
rclavicle -1.1778e-014 2.22639e-014
rhumerus -87.5151 52.4015 -124.949
rradius 82.6103
rwrist 0.556956
rhand -8.37626 32.5508
rfingers 7.12502
rthumb 17.5468 3.32262
lclavicle -1.1778e-014 2.22639e-014
lhumerus -29.043 24.3622 18.474
lradius 110.058
lwrist -13.5081
lhand -10.1373 34.9854
lfingers 7.12502
lthumb 15.8515 64.3565
rfemur -19.8661 3.67953 18.9356
rtibia 42.5437
rfoot -24.7393 -10.6303
rtoes -12.1104
lfemur -19.2328 0.159819 -18.448
ltibia 44.2557
lfoot -27.8476 9.84424
ltoes -15.4239
1292
root 0.0640975 17.2776 -0.543118 3.4802 -4.42218 -0.888664
lowerback 5.3859 2.71125 -1.1921
upperback -1.34411 3.42966 -2.4405
thorax -4.3293 1.7 -2.16584
lowerneck 2.72441 -1.34775 -5.89435
upperneck 6.3034 -2.15433 6.05814
head 1.6791 -1.11761 2.97843
rclavicle 4.6118e-014 -1.51076e-014
rhumerus -87.4379 52.4197 -124.857
rradius 82.5549
rwrist 0.560234
rhand -8.25224 32.658
rfingers 7.12502
rthumb 17.6661 3.44051
lclavicle 4.6118e-014 -1.51076e-014
lhumerus -29.1634 24.2305 18.4657
lradius 109.942
lwrist -13.5474
lhand -10.2606 35.0069
lfingers 7.12502
lthumb 15.7327 64.3874
rfemur -19.8513 3.67274 19.1136
rtibia 42.5602
rfoot -24.7867 -10.6177
rtoes -12.089
lfemur -19.2715 0.152363 -18.2648
ltibia 44.32
lfoot -27.8118 9.87826
ltoes -15.8097
1293
root 0.059104 17.2747 -0.541212 3.46767 -4.43384 -0.947002
lowerback 5.34431 2.72251 -1.27003
upperback -1.34861 3.44091 -2.42255
thorax -4.31592 1.70788 -2.10267
lowerneck 2.72104 -1.31929 -5.96077
upperneck 6.22914 -2.11761 6.1286
head 1.65544 -1.09979 3.01511
rclavicle -6.08778e-014 2.38542e-014
rhumerus -87.3657 52.3906 -124.794
rradius 82.5154
rwrist 0.551567
rhand -8.16808 32.7197
rfingers 7.12502
rthumb 17.7471 3.50951
lclavicle -6.08778e-014 2.38542e-014
lhumerus -29.1475 24.213 18.4552
lradius 109.806
lwrist -13.5775
lhand -10.279 34.8125
lfingers 7.12502
lthumb 15.715 64.1944
rfemur -19.8256 3.68 19.1945
rtibia 42.5533
rfoot -24.7726 -10.6461
rtoes -12.2271
lfemur -19.2792 0.153454 -18.1849
ltibia 44.3808
lfoot -27.7805 9.90656
ltoes -15.8932
1294
root 0.0570406 17.2743 -0.538768 3.47691 -4.42245 -0.950677
lowerback 5.27942 2.73435 -1.34069
upperback -1.37352 3.45229 -2.43916
thorax -4.30813 1.71519 -2.07879
lowerneck 2.77823 -1.31985 -5.98425
upperneck 6.12653 -2.12062 6.18758
head 1.61352 -1.10188 3.03951
rclavicle 2.26615e-014 -6.36111e-015
rhumerus -87.2662 52.3382 -124.724
rradius 82.4923
rwrist 0.516501
rhand -8.10948 32.7376
rfingers 7.12502
rthumb 17.8035 3.53256
lclavicle 2.26615e-014 -6.36111e-015
lhumerus -29.0026 24.3627 18.5395
lradius 109.669
lwrist -13.7319
lhand -10.1827 34.717
lfingers 7.12502
lthumb 15.8077 64.0915
rfemur -19.8133 3.66914 19.204
rtibia 42.5352
rfoot -24.8048 -10.6408
rtoes -12.2956
lfemur -19.3026 0.109866 -18.1779
ltibia 44.4261
lfoot -27.848 9.83072
ltoes -15.4128
1295
root 0.0572953 17.2751 -0.53814 3.47539 -4.56336 -1.01841
lowerback 5.26527 2.78862 -1.33435
upperback -1.40344 3.52596 -2.41199
thorax -4.33084 1.75183 -2.06111
lowerneck 2.82092 -1.3299 -6.05202
upperneck 6.02283 -2.13374 6.19448
head 1.57439 -1.11048 3.05433
rclavicle -1.48095e-014 3.18055e-015
rhumerus -87.2824 52.356 -124.724
rradius 82.5169
rwrist 0.481306
rhand -7.46513 32.7553
rfingers 7.12502
rthumb 18.4234 3.60777
lclavicle -1.48095e-014 3.18055e-015
lhumerus -29.05 24.2759 18.5438
lradius 109.678
lwrist -13.7248
lhand -10.0658 34.7509
lfingers 7.12502
lthumb 15.9203 64.1165
rfemur -19.807 3.77168 19.2596
rtibia 42.4939
rfoot -24.7433 -10.5818
rtoes -12.2503
lfemur -19.2754 0.177827 -18.1255
ltibia 44.4372
lfoot -27.811 9.92721
ltoes -15.5599
1296
root 0.0585692 17.277 -0.539738 3.5279 -4.89279 -1.12568
lowerback 5.24618 2.91486 -1.29934
upperback -1.46449 3.69811 -2.36173
thorax -4.38064 1.83678 -2.04525
lowerneck 2.83533 -1.34988 -6.07083
upperneck 5.94365 -2.15717 6.16091
head 1.54743 -1.12319 3.04587
rclavicle -2.77802e-014 1.43125e-014
rhumerus -87.2493 52.3384 -124.636
rradius 82.5011
rwrist 0.468725
rhand -6.23218 32.8354
rfingers 7.12502
rthumb 19.6091 3.80431
lclavicle -2.77802e-014 1.43125e-014
lhumerus -29.2338 23.9587 18.4467
lradius 109.758
lwrist -13.5742
lhand -10.058 34.6712
lfingers 7.12502
lthumb 15.9278 64.0362
rfemur -19.8957 4.03693 19.333
rtibia 42.4275
rfoot -24.647 -10.4889
rtoes -12.1578
lfemur -19.2646 0.460662 -18.0378
ltibia 44.3952
lfoot -27.7577 10.0399
ltoes -15.8651
1297
root 0.0621156 17.2819 -0.537989 3.54198 -5.03104 -1.18952
lowerback 5.24898 3.00052 -1.22443
upperback -1.50754 3.81762 -2.3403
thorax -4.42079 1.89419 -2.07734
lowerneck 2.78407 -1.3955 -6.02015
upperneck 5.91836 -2.21315 6.14051
head 1.55086 -1.14949 3.02847
rclavicle -2.13694e-015 -1.19271e-014
rhumerus -87.0931 52.2118 -124.435
rradius 82.4774
rwrist 0.469914
rhand -5.5794 32.8103
rfingers 7.12502
rthumb 20.2366 3.84447
lclavicle -2.13694e-015 -1.19271e-014
lhumerus -29.2456 23.7517 18.4035
lradius 109.821
lwrist -13.4961
lhand -10.006 34.7773
lfingers 7.12502
lthumb 15.9779 64.1384
rfemur -19.8797 4.18326 19.3707
rtibia 42.3244
rfoot -24.5699 -10.4307
rtoes -12.0966
lfemur -19.182 0.573616 -17.9902
ltibia 44.2756
lfoot -27.6986 10.1065
ltoes -16.1778
